<?xml version="1.0" encoding="UTF-8"?>
<svg xmlns="http://www.w3.org/2000/svg" version="1.1" viewBox="0 0 300 300">
  <defs>
    <style>
      .cls-1 {
        fill: #090709;
      }

      .cls-1, .cls-2 {
        stroke-width: 0px;
      }

      .cls-3 {
        fill: #000;
        font-family: TRJNDaVinci-Display, 'TRJN DaVinci';
        font-size: 42px;
      }

      .cls-2 {
        fill: #f9f7f4;
      }

      .cls-4 {
        display: none;
      }
    </style>
  </defs>
  <g id="Capa_1" data-name="Capa 1">
    <rect class="cls-2" x="0" width="300" height="300"/>
  </g>
  <g id="Capa_3" data-name="Capa 3">
    <g>
      <path class="cls-1" d="M37.7,210.5c-.7-.6-.7-1.2,0-1.8s1.8-1,3.5-1.2c5-.5,8.5-1.8,10.6-4s3.3-5.5,3.6-10.2c.3-6.7.5-20.6.5-41.8s-.2-40.2-.5-44.7c-.3-4.7-1.5-8.1-3.6-10.2s-5.6-3.5-10.6-4c-1.7-.2-2.9-.6-3.5-1.2s-.6-1.2,0-1.8,1.8-.9,3.4-.9c2.4,0,5.8.2,10.3.6s7.9.6,10.2.6c4.5,0,12.3-.4,23.4-1.3,2.1-.2,3.2.3,3.6,1.3.3,1-.3,1.7-1.9,2.2l-1.7.3c-10.8,1.1-16.2,5.8-16.4,14-.5,21.8-.8,36.8-.8,44.9,0,15.7.3,29.7.8,42s1.6,7.5,4.1,10.1,6.7,3.9,12.3,3.9,10.3-2,16.8-6c6.5-4,11.8-8.7,16.1-14,2.4-3,4.2-4.2,5.1-3.4.7.6.6,2-.3,4.4-2.6,7.3-5.8,12.9-9.7,16.9s-8.4,6-13.3,6h-14.7c-2.1,0-5.7-.2-10.9-.6s-9.4-.6-12.5-.6-5.7.2-10.2.6-7.9.6-10.3.6-2.7-.3-3.4-.9Z"/>
      <path class="cls-1" d="M155.1,205.9c-8.4-5.5-14.8-13.2-19.4-22.9-4.6-9.7-6.8-20.8-6.8-33.1s1.5-17.7,4.4-25.7,7-14.8,12-20.4,11.1-10,18-13.2c6.9-3.2,14.2-4.8,21.9-4.8s9.7.1,13.1.4,6.6.9,9.4,1.8c2.9.9,5.1,2.1,6.8,3.4s3.2,3.2,4.7,5.8c1.5,2.6,2.6,5.3,3.5,8.2.9,2.9,1.8,6.8,2.8,11.7.3,1.7,0,2.6-1.1,2.8-1.3.3-2.8-.8-4.4-3.3-5.2-8.5-10.9-14.8-17-18.8-6.1-4-12-6.1-17.8-6.1-11.8,0-21.7,5.3-29.4,16-7.8,10.7-11.7,24.8-11.7,42.3s3.5,32.2,10.5,42.6c7,10.4,16.7,15.6,29.1,15.6s13.6-1.2,18.1-3.6,6.9-6.2,7.1-11.2c.3-5.2.2-12.1-.3-20.7-.3-4.7-2-8.2-5.2-10.3-3.2-2.2-8.5-3.5-16-4-1.7-.1-2.9-.5-3.5-1.2s-.6-1.4,0-2.1,1.8-1,3.4-1c3.6,0,8.7.2,15.4.6,6.7.4,11.5.6,14.6.6s10.1-.4,18.2-1.3c1.5-.1,2.6.2,3.2.9.7.7.7,1.5,0,2.3-.6.8-1.7,1.3-3.3,1.5-4.8.6-8.2,2-10,4.4-1.9,2.3-2.8,5.5-3,9.6l-.3,24c0,1.6-.9,3.4-2.6,5.3s-4.1,3.9-7.2,5.8c-3.1,1.9-7.1,3.4-12.2,4.7-5.1,1.3-10.6,1.9-16.5,1.9-10.8,0-20.3-2.8-28.7-8.3Z"/>
      <path class="cls-1" d="M243.5,210.7c-2.2-2.3-3.4-4.9-3.4-8s1.1-5.6,3.3-7.8,4.9-3.3,8-3.4c3.1,0,5.7,1,8,3.2,2.2,2.2,3.4,4.9,3.4,7.9s-1.1,5.7-3.4,8c-2.3,2.3-4.9,3.4-8,3.4s-5.7-1.1-8-3.4Z"/>
    </g>
  </g>
</svg>